<svg xmlns="http://www.w3.org/2000/svg" width="135" height="135" fill="none"><path fill="#7492F0" d="M1.177 28.235C.592 18.292.299 13.32 2.092 9.588a16 16 0 0 1 7.496-7.496c3.733-1.793 8.704-1.5 18.648-.916l81.526 4.796c9.009.53 13.513.795 16.84 2.755a15.998 15.998 0 0 1 6.572 7.452c1.529 3.545 1.229 8.048.628 17.052l-4.795 71.935c-.528 7.919-.792 11.879-2.466 14.958a16.008 16.008 0 0 1-6.417 6.417c-3.079 1.674-7.039 1.938-14.958 2.466l-71.935 4.795c-9.004.6-13.506.901-17.052-.628a15.998 15.998 0 0 1-7.452-6.572c-1.96-3.327-2.225-7.831-2.755-16.84L1.177 28.236Z"/></svg>