<svg xmlns="http://www.w3.org/2000/svg" width="60" height="62" fill="none"><path fill="#fff" fill-rule="evenodd" d="m38.436 61.675-6.364-17.107 11.666-11.762 3.113 13.209-8.415 15.66ZM.252 23.18l15.535-8.485 13.103 3.137-11.667 11.762L.252 23.18Zm2.184 25.196c2.88-7.454 7.86-3.44 7.86-3.44l3.333 3.354 3.3 3.316s3.94 4.96-3.442 7.883c-2.236.608-4.563.8-6.867.568-1.223-.114-5.306 2.42-6.521 1.848-.585-1.23 1.932-5.348 1.81-6.585a19.326 19.326 0 0 1 .527-6.944Z" clip-rule="evenodd" opacity=".501"/><path fill="#fff" fill-rule="evenodd" d="M10.05 32.568C37.984 4.721 59.974 1.491 59.974 1.491S56.734 23.415 28.8 51.263c0 0-7.262 8.056-17.07-1.724-4.912-4.325-5.647-11.752-1.68-16.97Z" clip-rule="evenodd"/><path fill="#B9C8F7" fill-rule="evenodd" d="M35.469 26.215c2.556 2.665 2.496 6.91-.133 9.5a6.643 6.643 0 0 1-9.425-.086c-2.582-2.639-2.565-6.885.039-9.501a6.73 6.73 0 0 1 9.519.087Z" clip-rule="evenodd"/></svg>